<svg width="512" height="512" viewBox="0 0 512 512" fill="none" xmlns="http://www.w3.org/2000/svg">
<g clip-path="url(#clip0_1_2)">
<circle cx="256" cy="256" r="256" fill="#009F6A"/>
<path d="M299.131 385C285.047 385 272.034 382.948 260.093 378.845C248.152 374.425 238.507 366.534 231.158 355.17C223.81 343.806 220.136 327.55 220.136 306.4V158.197H154V126H357V158.197H261.011V230.168V302.139C261.011 314.134 262.848 323.762 266.523 331.022C270.197 338.282 275.402 343.491 282.138 346.647C288.874 349.804 296.529 351.382 305.102 351.382C311.838 351.382 318.727 350.909 325.769 349.962C333.118 348.699 339.241 347.436 344.14 346.174V377.424C339.854 379.318 333.424 381.054 324.851 382.633C316.584 384.211 308.011 385 299.131 385Z" fill="white"/>
</g>
<defs>
<clipPath id="clip0_1_2">
<rect width="512" height="512" fill="white"/>
</clipPath>
</defs>
</svg>
